<svg xmlns="http://www.w3.org/2000/svg" version="1.1" xmlns:xlink="http://www.w3.org/1999/xlink" width="512" height="512" x="0" y="0" viewBox="0 0 512 512" style="enable-background:new 0 0 512 512" xml:space="preserve" class=""><g><linearGradient id="a" x1="42.821" x2="469.179" y1="469.179" y2="42.821" gradientTransform="matrix(1 0 0 -1 0 512)" gradientUnits="userSpaceOnUse"><stop stop-opacity="1" stop-color="#a5098f" offset="0"></stop><stop stop-opacity="1" stop-color="#85d7d8" offset="0.5752895752895753"></stop><stop stop-opacity="1" stop-color="#85d7d8" offset="1"></stop></linearGradient><path fill="url(#a)" d="M223.5 436h65.1c2.4-41.1 35.4-74.1 76.5-76.5v-207C324 150.1 291 117.1 288.6 76h-65.1c-2.4 41.1-35.4 74.1-76.5 76.5v207.1c41.1 2.3 74.1 35.3 76.5 76.4zM287 319c-3.4 3.6-8.2 5.7-13.2 5.7h-1.1c3.9 9.2-.4 19.8-9.6 23.7-2.3 1-4.7 1.4-7 1.4s-4.7-.5-7-1.4c-9.2-3.9-13.5-14.5-9.6-23.7h-1.1c-5 0-9.7-2.1-13.2-5.7-6.9-7.3-6.5-18.8.8-25.6 7.3-6.9 18.8-6.5 25.6.8-3.5-6.5-7.5-12.2-12.5-14V276h34.2v4.1c-5 1.8-9 7.6-12.5 14 6.9-7.3 18.3-7.6 25.6-.8 7.1 6.9 7.4 18.4.6 25.7zm-43.5-63c0-6.9 5.6-12.5 12.5-12.5s12.5 5.6 12.5 12.5-5.6 12.5-12.5 12.5-12.5-5.6-12.5-12.5zm75.5-31c3.6 3.4 5.7 8.2 5.7 13.2v1.1c9.2-3.9 19.8.4 23.7 9.6 1 2.3 1.4 4.7 1.4 7s-.5 4.7-1.4 7c-3.9 9.2-14.5 13.5-23.7 9.6v1.1c0 5-2.1 9.7-5.7 13.2-7.3 6.9-18.8 6.5-25.6-.8s-6.5-18.8.8-25.6c-6.5 3.5-12.2 7.5-14.1 12.5H276v-34.2h4.1c1.8 5 7.6 9 14 12.5-7.3-6.8-7.6-18.3-.8-25.6 6.9-7.1 18.4-7.4 25.7-.6zm-94-32c3.4-3.6 8.2-5.7 13.2-5.7h1.1c-3.9-9.2.4-19.8 9.6-23.7 2.3-1 4.7-1.4 7-1.4s4.7.5 7 1.4c9.2 3.9 13.5 14.5 9.6 23.7h1.1c5 0 9.7 2.1 13.2 5.7 6.9 7.3 6.5 18.8-.8 25.6-7.3 6.9-18.8 6.5-25.6-.8 3.5 6.5 7.5 12.2 12.5 14.1v4.1h-34.3v-4.1c5-1.8 9-7.6 12.5-14-6.8 7.3-18.3 7.6-25.6.8-7-6.9-7.3-18.4-.5-25.7zm-37.7 80.8v-1.2c-9.2 3.9-19.8-.4-23.7-9.6-1-2.3-1.4-4.7-1.4-7s.5-4.7 1.4-7c3.9-9.2 14.5-13.5 23.7-9.6v-1.1c0-5 2.1-9.7 5.7-13.2 7.3-6.9 18.8-6.5 25.6.8 6.9 7.3 6.5 18.8-.8 25.6 6.5-3.5 12.2-7.5 14-12.5h4.1v34.3h-4.1c-1.8-5-7.6-9-14.1-12.5 7.3 6.9 7.6 18.3.8 25.6-6.9 7.3-18.3 7.6-25.6.8-3.5-3.6-5.6-8.4-5.6-13.4zm3.3-209c0-4.1-.5-8-1.3-11.8H124v65.3c3.8.8 7.8 1.3 11.8 1.3 30.2 0 54.8-24.6 54.8-54.8zm-53.2 6.6c.5-1.2 1.1-2.2 2-3 .8-.8 1.8-1.5 3-2 4.6-1.9 9.9.3 11.8 5 .1-.1.2-.3.4-.4 1.8-1.8 4.2-2.7 6.7-2.6 5 .2 8.9 4.3 8.8 9.3-.2 5-4.3 8.9-9.3 8.8 3.5 1.1 7 1.7 9.4.5l1.5 1.5-12.1 12.1-1.5-1.5c1.1-2.4.5-5.9-.5-9.4.2 5-3.8 9.2-8.8 9.3-5 .2-9.2-3.8-9.3-8.8-.1-2.5.9-4.9 2.6-6.7l.4-.4c-4.7-1.8-6.9-7.1-5.1-11.7zm63.2 375.8c0 4-.4 8-1.1 11.8h113c-.7-3.8-1.1-7.8-1.1-11.8 0-35.8 29-64.8 64.8-64.8 4 0 8 .4 11.8 1.1v-255c-3.8.7-7.8 1.1-11.8 1.1-35.8 0-64.8-29-64.8-64.8 0-4 .4-8 1.1-11.8h-113c.7 3.8 1.1 7.8 1.1 11.8 0 35.8-29 64.8-64.8 64.8-4 0-8-.4-11.8-1.1v254.9c3.8-.7 7.8-1.1 11.8-1.1 35.8.1 64.8 29.1 64.8 64.9zM137 142.4c1.8.1 3.5.2 5.3.2 39.4 0 71.3-31.9 71.3-71.3 0-1.8-.1-3.6-.2-5.3h85.2c-.1 1.8-.2 3.5-.2 5.3 0 39.4 31.9 71.3 71.3 71.3 1.8 0 3.5-.1 5.3-.2v227.2c-1.8-.1-3.5-.2-5.3-.2-39.4 0-71.3 31.9-71.3 71.3 0 1.8.1 3.5.2 5.3h-85.2c.1-1.8.2-3.5.2-5.3 0-39.4-31.9-71.3-71.3-71.3-1.8 0-3.6.1-5.3.2zm53.6 304.8c0-30.2-24.6-54.8-54.8-54.8-4.1 0-8 .5-11.8 1.3V459h65.3c.9-3.8 1.3-7.8 1.3-11.8zM170.1 425c-2.4-1.1-5.9-.5-9.4.5 5-.2 9.2 3.8 9.3 8.8.2 5-3.8 9.2-8.8 9.3-2.5.1-4.9-.9-6.7-2.6l-.4-.4c-1.9 4.6-7.2 6.9-11.8 5-1.1-.5-2.2-1.1-3-2-.8-.8-1.5-1.8-2-3-1.9-4.6.4-9.9 5-11.8-.1-.1-.3-.2-.4-.4-1.8-1.8-2.7-4.2-2.6-6.7.2-5 4.3-8.9 9.3-8.8s8.9 4.3 8.8 9.3c1.1-3.5 1.7-7 .5-9.4l1.5-1.5 12.1 12.1zm206.1-305.4c4.1 0 8-.5 11.8-1.3V53h-65.3c-.8 3.8-1.3 7.8-1.3 11.8 0 30.2 24.6 54.8 54.8 54.8zM341.9 87c2.4 1.1 5.9.5 9.4-.5-5 .2-9.2-3.8-9.3-8.8-.2-5 3.8-9.2 8.8-9.3 2.5-.1 4.9.9 6.7 2.6l.4.4c1.9-4.6 7.2-6.9 11.8-5 1.1.5 2.2 1.2 3 2s1.5 1.8 2 3c1.9 4.6-.4 9.9-5 11.8.1.1.3.2.4.4 1.8 1.8 2.7 4.2 2.6 6.7-.2 5-4.3 8.9-9.3 8.8-5-.2-8.9-4.3-8.8-9.3-1 3.5-1.7 7-.5 9.4l-1.5 1.5-12.1-12.1zM101 482h310V30H101zm13-429c0-5.5 4.5-10 10-10h264c5.5 0 10 4.5 10 10v406c0 5.5-4.5 10-10 10H124c-5.5 0-10-4.5-10-10zM416 0H96C82.2 0 71 11.2 71 25v462c0 13.8 11.2 25 25 25h320c13.8 0 25-11.2 25-25V25c0-13.8-11.2-25-25-25zm5 482c0 5.5-4.5 10-10 10H101c-5.5 0-10-4.5-10-10V30c0-5.5 4.5-10 10-10h310c5.5 0 10 4.5 10 10zm-99.6-34.8c0 4.1.5 8 1.3 11.8H388v-65.3c-3.8-.8-7.8-1.3-11.8-1.3-30.2 0-54.8 24.6-54.8 54.8zm53.2-6.6c-.5 1.2-1.1 2.2-2 3-.8.8-1.8 1.5-3 2-4.6 1.9-9.9-.4-11.8-5-.1.1-.2.3-.4.4-1.8 1.8-4.2 2.7-6.7 2.6-5-.2-8.9-4.3-8.8-9.3s4.3-8.9 9.3-8.8c-3.5-1-7-1.7-9.4-.5l-1.5-1.5 12.1-12.1 1.5 1.5c-1.1 2.4-.5 5.9.5 9.4-.2-5 3.8-9.2 8.8-9.3 5-.2 9.2 3.8 9.3 8.8.1 2.5-.9 4.9-2.6 6.7l-.4.4c4.7 1.8 6.9 7.1 5.1 11.7z" opacity="1" data-original="url(#a)" class=""></path></g></svg>