<svg version="1.1" id="Capa_1" xmlns="http://www.w3.org/2000/svg" xmlns:xlink="http://www.w3.org/1999/xlink" x="0px" y="0px" viewBox="0 0 510.793 510.793" style="enable-background:new 0 0 510.793 510.793;" xml:space="preserve">
<g>
	<path style="fill:#96F2EF;" d="M397.392,48.382L252.503,9.559c-32.008-8.577-64.908,10.418-73.485,42.426l-11.872,44.307h31.058&#10;&#9;&#9;l9.792-36.542c4.288-16.004,20.738-25.501,36.742-21.213l173.867,46.587c16.004,4.288,25.501,20.738,21.213,36.742l14.489,3.882&#10;&#9;&#9;C462.884,93.741,437.402,59.103,397.392,48.382z"/>
	<path style="fill:#48ECE5;" d="M426.37,56.147l-28.978-7.765c32.008,8.576,51.003,41.477,42.426,73.485l-78.163,291.71&#10;&#9;&#9;c-4.286,15.996-20.722,25.491-36.718,21.219v8.497c0,7.615-1.908,14.79-5.261,21.084c31.195,6.948,62.606-11.87,70.957-43.036&#10;&#9;&#9;l78.163-291.71C477.373,97.623,458.378,64.723,426.37,56.147z"/>
	<path style="fill:#D5F4F5;" d="M279.937,473.293h-180c-16.569,0-30-13.432-30-30v-302c0-16.569,13.431-30,30-30h180&#10;&#9;&#9;c16.569,0,30,13.431,30,30h15c0-33.137-33.579-60-75-60h-150c-33.137,0-60,26.863-60,60v302c0,33.137,26.863,60,60,60h150&#10;&#9;&#9;c41.421,0,75-26.863,75-60h-15C309.937,459.861,296.506,473.293,279.937,473.293z"/>
	<path style="fill:#96F2EF;" d="M279.937,81.293h-30c33.137,0,60,26.863,60,60v302c0,33.137-26.863,60-60,60h30&#10;&#9;&#9;c33.137,0,60-26.863,60-60v-302C339.937,108.156,313.074,81.293,279.937,81.293z"/>
	<path style="fill:#FC6655;" d="M209.555,222.139c-7.029,0.948-13.707,3.4-19.618,7.171c-7.731-4.931-16.772-7.617-26.197-7.617&#10;&#9;&#9;c-26.91,0-48.803,21.913-48.803,48.851c0.004,21.983,11.7,44.056,34.763,65.604c16.06,15.005,32.044,24.333,32.717,24.723&#10;&#9;&#9;c2.326,1.348,4.923,2.021,7.521,2.021c2.078,0,4.156-0.674,6.016-2.021c0.538-0.39,13.326-9.718,26.173-24.723&#10;&#9;&#9;c18.45-21.548,27.807-43.621,27.81-65.607C249.937,245.812,232.319,225.331,209.555,222.139z M189.949,330.103&#10;&#9;&#9;c-16.783-11.583-45.008-35.959-45.012-59.562c0-10.393,8.435-18.848,18.803-18.848c5.666,0,10.978,2.528,14.572,6.936&#10;&#9;&#9;c2.849,3.494,7.118,5.521,11.626,5.521s8.776-2.027,11.625-5.521c3.593-4.408,8.904-6.936,14.571-6.936&#10;&#9;&#9;c10.368,0,18.803,8.455,18.803,18.845C234.933,294.265,207.102,318.341,189.949,330.103z"/>
	<circle style="fill:#FC6655;" cx="114.937" cy="156.293" r="15"/>
	<circle style="fill:#FA4350;" cx="264.937" cy="428.293" r="15"/>
	<path style="fill:#FA4350;" d="M216.134,221.693c-2.219,0-4.415,0.154-6.579,0.446c14.308,3.192,25.382,23.674,25.382,48.402&#10;&#9;&#9;c-0.002,21.986-7.02,44.059-20.858,65.607c-9.636,15.005-19.226,24.333-19.63,24.723c-1.396,1.348-2.954,2.021-4.512,2.021&#10;&#9;&#9;c2.598,0,5.194-0.674,7.521-2.021c0.673-0.39,16.657-9.718,32.717-24.723c23.062-21.548,34.759-43.621,34.763-65.607&#10;&#9;&#9;C264.937,243.606,243.045,221.693,216.134,221.693z"/>
	<path style="fill:none;stroke:#FF94FD;stroke-width:15;stroke-linecap:round;stroke-linejoin:round;stroke-miterlimit:10;" d="&#10;&#9;&#9;M39.937,307.293v136c0,33.137,26.863,60,60,60h180c33.137,0,60-26.863,60-60v-302c0-33.137-26.863-60-60-60h-180&#10;&#9;&#9;c-33.137,0-60,26.863-60,60v136"/>
	<path style="fill:none;stroke:#FF94FD;stroke-width:15;stroke-linecap:round;stroke-linejoin:round;stroke-miterlimit:10;" d="&#10;&#9;&#9;M99.937,111.293c-16.569,0-30,13.431-30,30v302c0,16.569,13.431,30,30,30h180c16.569,0,30-13.431,30-30v-302&#10;&#9;&#9;c0-16.569-13.431-30-30-30H99.937z"/>
	<path style="fill:none;stroke:#FF94FD;stroke-width:15;stroke-linecap:round;stroke-linejoin:round;stroke-miterlimit:10;" d="&#10;&#9;&#9;M189.937,362.893c-2.598,0-5.194-0.674-7.521-2.021c-0.673-0.39-16.657-9.718-32.717-24.723&#10;&#9;&#9;c-23.063-21.548-34.759-43.621-34.763-65.604c0-26.938,21.893-48.851,48.803-48.851c9.425,0,18.466,2.686,26.197,7.617&#10;&#9;&#9;c7.73-4.932,16.771-7.617,26.197-7.617c26.91,0,48.803,21.913,48.803,48.848c-0.004,21.986-11.7,44.059-34.763,65.607&#10;&#9;&#9;c-16.06,15.005-32.044,24.333-32.717,24.723C195.131,362.219,192.535,362.893,189.937,362.893z"/>
	<path style="fill:none;stroke:#FF94FD;stroke-width:15;stroke-linecap:round;stroke-linejoin:round;stroke-miterlimit:10;" d="&#10;&#9;&#9;M163.74,251.693c-10.368,0-18.803,8.455-18.803,18.848c0.004,23.603,28.229,47.979,45.012,59.562&#10;&#9;&#9;c17.153-11.763,44.984-35.838,44.988-59.565c0-10.39-8.435-18.845-18.803-18.845c-5.667,0-10.979,2.528-14.571,6.936&#10;&#9;&#9;c-2.849,3.494-7.117,5.521-11.625,5.521s-8.777-2.027-11.626-5.521C174.717,254.221,169.406,251.693,163.74,251.693z"/>
	<path style="fill:none;stroke:#FF94FD;stroke-width:15;stroke-linecap:round;stroke-linejoin:round;stroke-miterlimit:10;" d="&#10;&#9;&#9;M335.577,465.748c25.359-1.221,48.133-18.569,55.056-44.407l35.199-131.366"/>
	<path style="fill:none;stroke:#FF94FD;stroke-width:15;stroke-linecap:round;stroke-linejoin:round;stroke-miterlimit:10;" d="&#10;&#9;&#9;M433.597,260.997l35.199-131.366c8.577-32.008-10.418-64.908-42.426-73.485L252.503,9.559&#10;&#9;&#9;c-32.008-8.576-64.908,10.418-73.485,42.426l-7.853,29.307"/>
	<path style="fill:none;stroke:#FF94FD;stroke-width:15;stroke-linecap:round;stroke-linejoin:round;stroke-miterlimit:10;" d="&#10;&#9;&#9;M202.224,81.293l5.772-21.542c4.288-16.004,20.739-25.501,36.742-21.213l173.867,46.587c16.004,4.288,25.501,20.738,21.213,36.742&#10;&#9;&#9;l-78.163,291.71c-2.922,10.905-11.492,18.783-21.718,21.344"/>
	
		<circle style="fill:none;stroke:#FF94FD;stroke-width:15;stroke-linecap:round;stroke-linejoin:round;stroke-miterlimit:10;" cx="114.937" cy="156.293" r="15"/>
	
		<circle style="fill:none;stroke:#FF94FD;stroke-width:15;stroke-linecap:round;stroke-linejoin:round;stroke-miterlimit:10;" cx="264.937" cy="428.293" r="15"/>
</g>
<g>
</g>
<g>
</g>
<g>
</g>
<g>
</g>
<g>
</g>
<g>
</g>
<g>
</g>
<g>
</g>
<g>
</g>
<g>
</g>
<g>
</g>
<g>
</g>
<g>
</g>
<g>
</g>
<g>
</g>
</svg>