<svg id="Capa_1" enable-background="new 0 0 512 512" viewBox="0 0 512 512" xmlns="http://www.w3.org/2000/svg"><g><path d="m256 164.285c-9.121 0-16.514 7.394-16.514 16.514v132.114l24.09 7.808v-139.192z" fill="#ff78b9"/><path d="m497.655 394.47-190.974-330.776-30.254-34.788c-6.356-2.076-13.112-3.183-20.088-3.218-23.976-.12-45.832 13.878-57.82 34.642l-15.903 27.545c-4.47 7.742-1.967 17.635 5.646 22.32 7.922 4.875 18.305 2.248 22.955-5.807l16.464-28.518c5.424-9.395 14.899-16.221 25.716-17.055 12.566-.968 24.028 5.112 30.224 15.849l190.287 329.587c5.632 9.754 6.581 21.872 1.362 31.853-5.61 10.729-16.297 17.178-28.293 17.178h-380.528c-10.851 0-21.506-4.782-27.645-13.729-7.134-10.396-7.6-23.378-1.401-34.112l140.773-243.826c4.47-7.742 1.967-17.635-5.646-22.32-7.922-4.875-18.305-2.248-22.956 5.807l-140.771 243.826c-11.682 20.226-11.736 44.366-.167 64.636 3.56 6.237 8.123 11.674 13.412 16.233l45.491 6.247h376.922c23.972 0 39.194-1.661 51.078-22.48 11.569-20.27 13.798-38.868 2.116-59.094z" fill="#ffe077"/><path d="m256 164.285v132.114c0 9.12-7.394 16.514-16.514 16.514 0 9.12 7.394 16.514 16.514 16.514s16.514-7.394 16.514-16.514v-132.114c0-9.121-7.394-16.514-16.514-16.514z" fill="#f555b4"/><path d="m260.65 363.119c-1.475-.432-3.035-.664-4.65-.664-9.121 0-16.514 7.394-16.514 16.514 0 1.627.235 3.198.673 4.683 0 0 8.347 9.641 15.841 9.641l14.254-14.324c0-9.621-9.604-15.85-9.604-15.85z" fill="#ff78b9"/><path d="m260.65 363.119c.429 1.47.683 3.061.683 4.67 0 9.12-7.394 16.514-16.514 16.514-1.609 0-3.19-.221-4.66-.65 2.003 6.865 8.329 11.831 15.841 11.831 9.12 0 16.514-7.394 16.514-16.514 0-7.513-4.999-13.848-11.864-15.851z" fill="#f555b4"/><path d="m503.197 388.928-190.974-330.776c-8.166-14.148-20.938-24.363-35.796-29.245l212.473 368.286c8.701 15.055 8.741 33.069.121 48.188-8.596 15.063-25.674 24.417-44.559 24.417h-422.414c12.349 10.591 28.758 16.514 45.491 16.514h376.923c23.972 0 47.019-11.928 58.902-32.748 11.569-20.27 11.515-44.41-.167-64.636z" fill="#ffd05b"/></g><g/><g/><g/><g/><g/><g/><g/><g/><g/><g/><g/><g/><g/><g/><g/></svg>