<svg id="Capa_1" enable-background="new 0 0 512 512" viewBox="0 0 512 512" xmlns="http://www.w3.org/2000/svg"><g><path d="m256 252.226c-2.725 0-5.43-.267-8.112-.092-64.537 4.191-115.759 58.027-115.759 123.609 0 9.121 7.395 16.516 16.516 16.516s16.516-7.395 16.516-16.516c0-50.089 40.75-90.839 90.839-90.839s90.839 40.75 90.839 90.839c0 0 6.713 11.361 15.834 11.361l10.588-7.71c0-59.946-48.959-127.168-117.261-127.168z" fill="#b8eb7c"/><path d="m96.644 272.531c-19.231 29.579-30.464 64.812-30.579 102.62-.025 8.154 5.808 15.648 13.865 16.901 10.294 1.601 19.167-6.319 19.167-16.31 0-31.464 9.398-60.725 25.43-85.295 4.29-6.575 3.482-15.213-2.069-20.764l-.069-.069c-7.523-7.521-19.947-6.001-25.745 2.917z" fill="#ffe077"/><path d="m255.999 186.09c-2.319-.131-4.636-.242-6.938-.159-37.701 1.364-72.614 13.793-101.633 34.102-8.534 5.973-9.833 18.079-2.468 25.444 5.693 5.693 14.608 6.389 21.197 1.764 25.465-17.874 56.435-28.403 89.841-28.403 86.105 0 156.235 69.72 156.898 155.672.002.22.007.44.016.66 0 0 5.532 11.059 13.505 12.421 10.406 1.778 9.611-3.336 9.611-13.412.002-104.732-72.541-182.007-180.029-188.089z" fill="#ffe077"/><path d="m455.469 225.185-13.701-6.307c-1.713.796-3.321 1.901-4.739 3.319-5.757 5.757-6.435 14.837-1.598 21.385 27.132 36.728 43.291 82.027 43.535 131.034.001.259.008.517.02.775l12.81 12.039c10.387 1.748 15.638-3.296 15.638-13.357-.001-56.817-20.52-106.379-51.965-148.888z" fill="#ff78b9"/><path d="m414.233 198.283.033-.033c6.992-6.992 6.375-18.61-1.431-24.681-43.356-33.716-97.785-53.828-156.834-53.828-140.928.001-255.626 114.464-256.001 255.309-.022 8.174 5.752 15.722 13.826 16.995 10.311 1.626 19.205-6.301 19.205-16.304 0-122.944 100.024-222.968 222.968-222.968 51.449 0 98.856 17.547 136.622 46.935 6.511 5.067 15.778 4.408 21.612-1.425z" fill="#ff78b9"/><path d="m255.999 251.871c-2.724 0-5.431.089-8.112.263 58.434 3.794 106.025 48.313 114.497 105.352 1.423 9.58-5.861 18.257-15.546 18.257 0 9.963 8.823 17.866 19.081 16.323 8.361-1.258 14.033-9.189 13.944-17.643-.71-67.702-56.002-122.552-123.864-122.552z" fill="#98db7c"/><path d="m255.999 185.806c-2.305 0-4.652.043-6.938.125 94.587 4.946 171.163 79.551 179.281 173.281.763 8.811-6.59 16.288-15.428 15.958.325 8.067 5.611 15.474 13.592 16.838 10.405 1.778 19.429-6.192 19.429-16.267 0-104.733-85.205-189.935-189.936-189.935z" fill="#ffd05b"/><path d="m461.907 223.904c-4.767-6.444-13.293-8.202-20.14-5.025 30.264 38.936 49.631 86.856 53.255 138.967.649 9.333-6.684 17.35-16.038 17.545.37 7.981 5.72 15.294 13.63 16.625 10.387 1.748 19.386-6.213 19.386-16.274 0-56.816-18.647-109.33-50.093-151.838z" fill="#f555b4"/></g><g/><g/><g/><g/><g/><g/><g/><g/><g/><g/><g/><g/><g/><g/><g/></svg>