<svg id="Capa_1" enable-background="new 0 0 512 512" viewBox="0 0 512 512" xmlns="http://www.w3.org/2000/svg"><g><path d="m502.057 384.712c-11.663-16.32-29.879-18.436-47.566-8.688-40.215 22.182-88.43 32.074-134.877 28.018-100.483-8.75-189.601-86.7-210.678-183.638l-12.949-13.889-1.061.301c-8.06 2.418-12.874 10.666-11.076 18.887 24.199 110.678 120.038 197.445 234.81 207.438 52.963 4.636 105.257-6.354 151.237-31.704 3.951-2.169 6.426-.315 7.821 1.629 2.746 3.846.077 6.265-.927 7.176-55.688 50.475-127.89 74.423-203.301 67.569-124.983-11.45-227.857-114.32-239.295-239.307-6.902-75.414 17.093-147.612 67.565-203.288.621-.685 1.935-2.137 3.919-2.137.935 0 2.024.323 3.258 1.209 1.947 1.387 3.806 3.87 1.633 7.821-19.153 34.712-30 73.038-32.2 112.531l13.597 10.19 11.321-8.471c1.991-34.391 16.57-75.923 33.231-106.126l3.958-28.486c-2.766-5.518-6.916-10.459-12.343-14.334-16.36-11.684-37.256-9.369-50.842 5.62-56.757 62.604-83.74 143.751-75.987 228.487 13.079 142.887 126.281 256.094 269.177 269.173 9.535.879 19.025 1.306 28.447 1.306 68.688 0 133.832-23.003 187.184-66.265 4.367-3.541 7.179-8.342 11.383-12.153 14.985-13.578 16.236-32.517 4.561-48.869z" fill="#ffe077"/><path d="m313.773 156.967c-.294-.014-.588-.022-.884-.022h-7.373c-13.68 0-24.77-11.09-24.77-24.77v-7.373c0-8.226-5.621-15.85-13.74-17.171-10.346-1.683-19.287 6.258-19.287 16.287v8.257c0 13.68-11.09 24.77-24.77 24.77h-7.373c-8.226 0-15.85 5.621-17.171 13.74-1.683 10.346 6.258 19.287 16.287 19.287h8.257c13.68 0 24.77 11.09 24.77 24.77v7.373c0 .295.007.589.021.883l17.249 7.181 9.949-21.243c0-13.68 11.09-24.77 24.77-24.77l26.095-9.154z" fill="#ffe077"/><g fill="#ffd05b"><path d="m504.592 383.867c-11.663-16.32-32.962-21.093-50.649-11.345-40.215 22.182-85.974 31.777-132.421 27.721-100.483-8.751-184.413-84.765-205.49-181.703-1.975-9.083-11.138-14.603-20.045-12.025l3.911 15.532c22.899 105.313 113.441 185.356 220.189 194.645 49.709 4.37 98.742-5.934 141.823-29.705 10.401-5.741 22.315-2.98 29.245 6.475 12.945 17.662 4.042 39.045-5.042 52.272 4.347-3.526 8.673-7.235 12.859-11.029 14.985-13.578 17.295-34.486 5.62-50.838z"/><path d="m79.775 154.67-1.405-.03c-.01.179-.034.356-.044.535-.589 10.965 10.123 19.097 20.64 15.942l1.017-.305c6.586-1.975 11.01-7.941 11.408-14.805 1.991-34.391 11.435-67.744 28.096-97.947 6.501-11.787 6.519-25.235.99-36.311-24.475 38.857-39.425 78.624-44.017 118.437-.97 8.415-8.214 14.666-16.685 14.484z"/><path d="m330.06 170.685c-1.273-7.824-8.409-13.329-16.287-13.718v3.266c0 3.928-1.722 7.658-4.712 10.205l-.097.083c-2.236 1.906-5.05 2.865-7.971 3.183-19.311 2.104-34.621 17.526-36.554 36.888-.269 2.69-1.103 5.292-2.774 7.417-2.477 3.151-6.263 4.99-10.271 4.99h-3.653c.389 7.878 5.894 15.014 13.719 16.287 10.346 1.683 19.287-6.258 19.287-16.287v-8.257c0-13.68 11.09-24.77 24.77-24.77h8.257c10.028 0 17.969-8.941 16.286-19.287z"/></g><path d="m403.017 280.796c0 13.68-9.51 23.175-23.19 23.175-15.036 0-22.506-12.813-22.506-12.813-1.454-3.152-2.265-6.662-2.265-10.361 0-13.68 11.09-24.77 24.77-24.77 3.705 0 7.22.813 10.376 2.271 0-.001 12.815 8.261 12.815 22.498z" fill="#ffe077"/><path d="m390.202 258.297c1.457 3.155 2.289 6.69 2.289 10.394 0 13.68-11.09 24.77-24.77 24.77-3.704 0-7.245-.847-10.401-2.304 3.925 8.5 12.529 14.409 22.506 14.409 13.68 0 24.77-11.09 24.77-24.77 0-9.977-5.894-18.574-14.394-22.499z" fill="#ffd05b"/></g><g/><g/><g/><g/><g/><g/><g/><g/><g/><g/><g/><g/><g/><g/><g/></svg>