<svg id="Capa_1" enable-background="new 0 0 512 512" viewBox="0 0 512 512" xmlns="http://www.w3.org/2000/svg"><g><path d="m393.363 146.436c-1.206-1.757-2.597-3.431-4.172-4.997-6.299-6.264-15.142-9.311-24.026-9.311h-95.729c-8.746 0-15.976 6.818-16.488 15.549-.556 9.485 6.986 17.483 16.488 17.483h96.716l-109.362 229.659 19.77-153.225c.609-4.709-.839-9.451-3.976-13.02-3.137-3.564-7.653-5.609-12.403-5.609h-114.342l14.068-189.934h106.338l-5.859 46.874 21.004 12.36 13.032-67.765-8.222-17.792c-5.695-4.315-12.694-6.708-19.954-6.708h-106.338c-17.297 0-31.666 13.344-32.944 30.594l-14.068 189.929c-.677 9.129 2.508 18.214 8.738 24.923 6.23 6.706 15.052 10.552 24.206 10.552h95.56l-30.482 236.233c-.952 7.375 2.555 14.969 9.121 18.153l16.688-14.102 153.914-323.219z" fill="#ffe077"/><g fill="#ffd05b"><path d="m227.149 512c6.234 0 12.117-3.548 14.911-9.419l153.914-323.219c5.081-10.669 4.102-23.111-2.612-32.926l-173.325 363.948c.458.222.934.424 1.421.601 1.879.684 3.8 1.015 5.691 1.015z"/><path d="m291.011 11.173c-1.463-1.658-3.076-3.151-4.811-4.465l-7.285 58.124c-1.146 9.174-9.313 15.819-18.529 15.074-1.027 8.214 3.806 16.44 11.801 18.587.835.224 1.652.287 2.474.385 9.188 1.101 17.307-5.323 18.423-14.249l5.935-47.496c1.178-9.399-1.741-18.859-8.008-25.96z"/></g></g><g/><g/><g/><g/><g/><g/><g/><g/><g/><g/><g/><g/><g/><g/><g/></svg>