<svg id="Capa_1" enable-background="new 0 0 512 512" viewBox="0 0 512 512" xmlns="http://www.w3.org/2000/svg"><g><path d="m428.426 140.915-14.335-.869-38.226 29.104c-43.254-104.224-112.56-159.913-115.548-162.244l-16.315-1.736c-.92.973-1.727 2.063-2.397 3.254l-65.588 116.604-34.725-23.153c-6.548-4.371-15.278-3.508-20.839 2.064-3.234 3.234-79.161 80.459-79.161 193.353 0 42.847 12.593 84.217 36.415 119.652 5.093 7.573 15.359 9.573 22.919 4.492 7.573-5.097 9.581-15.355 4.492-22.927-20.145-29.959-30.794-64.959-30.794-101.217 0-77.201 41.943-137.063 60.657-159.926l37.536 25.024c3.827 2.548 8.536 3.363 13.012 2.323 4.468-1.073 8.29-3.96 10.544-7.968l64.173-114.088c22.822 22.484 67.568 73.75 95.814 152.838 1.815 5.081 5.996 8.952 11.202 10.379 5.21 1.411 10.774.218 14.923-3.25l32.972-27.476c9.145 22.911 22.52 66.008 22.52 122.144 0 36.258-10.605 71.186-30.75 101.145l13.029 19.944c24.109-19.547 43.656-78.242 43.656-121.089-.001-94.145-33.747-153.861-35.186-156.377z" fill="#ff78b9"/><path d="m256.082 210.284-12.264 1.371c-5.369 4.636-22.378 19.868-41.092 42.191-5.74 6.847-4.863 17.078 1.861 22.962l.092.081c6.94 6.073 17.554 5.293 23.48-1.773 10.644-12.691 20.7-22.952 27.857-29.816 24.422 23.37 82.599 85.892 82.564 151.147-.021 39.821-29.444 74.971-68.744 81.389-51.622 8.43-96.416-31.38-96.416-81.448 0-24.063 7.965-47.788 19.233-69.322 3.539-6.762 2.022-15.045-3.721-20.07-8.091-7.08-20.64-4.652-25.607 4.882-13.289 25.505-22.829 54.161-22.936 84.005-.213 59.744 46.702 111.022 106.239 115.745l.25.004s9.802.033 14.364-.673c60.74-9.4 102.896-52.522 102.896-114.572-.002-97.45-103.766-182.53-108.056-186.103z" fill="#ffe077"/><path d="m266.572 210.284c-6.121-5.113-15.024-5.113-21.145 0-.239.199-.806.679-1.609 1.371 16.27 11.968 111.022 92.245 111.022 184.732 0 61.243-47.927 111.383-108.213 115.24.063.005.147.011.21.016 67.867 5.257 124.775-48.478 124.775-115.256 0-97.45-100.749-182.53-105.04-186.103z" fill="#ffd05b"/><path d="m435.499 140.454c-2.423-4.242-6.601-7.193-11.407-8.056-4.819-.871-9.75.435-13.504 3.564l-31.859 26.548c-43.254-104.224-109.6-156.7-112.588-159.03-3.798-2.952-8.702-4.105-13.399-3.153-3.369.68-6.42 2.396-8.74 4.843 24.455 19.977 83.704 74.92 119.409 163.518 1.976 4.895 6.177 8.548 11.29 9.839 5.145 1.306 10.548.048 14.605-3.331l31.871-26.524c.331.581 33.016 58.596 33.016 148.62 0 33.579-8.377 66.181-24.358 95.264-4.495 8.182-15.002 10.67-22.908 5.881-.016.023-.029.048-.044.072-5.089 7.573-3.081 17.831 4.492 22.927 2.827 1.895 6.028 2.806 9.198 2.806 5.314 0 10.532-2.556 13.722-7.298 23.822-35.435 36.415-76.806 36.415-119.652-.002-94.145-33.772-154.322-35.211-156.838z" fill="#f555b4"/></g><g/><g/><g/><g/><g/><g/><g/><g/><g/><g/><g/><g/><g/><g/><g/></svg>