<svg id="Capa_1" enable-background="new 0 0 512 512" viewBox="0 0 512 512" xmlns="http://www.w3.org/2000/svg"><g><g fill="#ffe077"><path d="m256 403.072c-33.796 0-58.245-8.672-58.245-8.672-12.129-4.468-23.518-10.339-33.784-17.497-7.48-5.218-9.319-15.512-4.101-22.996 5.222-7.476 15.508-9.306 22.996-4.101 20.165 14.06 46.137 21.806 73.133 21.806s52.968-7.746 73.133-21.806c2.811-1.952 6.014-2.915 9.194-2.961 0 0 10.283 3.286 12.346 9.096 3.053 8.597 1.616 14.981-5.864 20.199-25.656 17.891-55.118 26.932-88.808 26.932z"/><path d="m256 0c-78.653 0-151.814 35.391-200.726 97.097-5.665 7.145-4.464 17.536 2.686 23.202 7.149 5.677 17.536 4.46 23.201-2.686 42.605-53.75 106.335-84.581 174.839-84.581s132.234 30.831 174.839 84.581c3.262 4.113 8.084 6.258 12.956 6.258 2.818 0 5.654-.717 8.209-2.188l-.552-17.687c-20.851-31.276-87.744-88.333-147.805-99.588-15.542-2.912-31.478-4.408-47.647-4.408z"/><path d="m494.556 298.454c-.683-.27-1.391-.498-2.124-.679-8.855-2.189-17.811 3.21-20.004 12.061-24.678 99.579-113.678 169.132-216.428 169.132s-191.75-69.553-216.427-169.133c-2.194-8.851-11.153-14.25-20.004-12.061-8.855 2.194-14.254 11.153-12.06 20.004 10.536 42.509 31.275 80.252 59.235 110.899 47.256 51.798 127.985 77.997 189.256 77.997 117.968 0 214.023-76.125 242.366-190.479z"/></g><path d="m494.6 156.903h-73.438c-9.122 0-16.516 7.395-16.516 16.516 0 9.122 7.395 16.516 16.516 16.516h11.073c5.211 0 9.119 4.767 8.098 9.877l-6.316 31.587c-6.449 32.225-37.773 54.499-71.451 48.353-26.617-4.858-46.373-27.581-49.949-54.401l-3.475-26.066c-.431-3.23 1.052-5.48 1.972-6.532.924-1.052 2.956-2.818 6.218-2.818h37.766c9.122 0 16.516-7.395 16.516-16.516 0-9.122-7.395-16.516-16.516-16.516h-37.766c-11.903 0-23.226 5.137-31.068 14.093-3.69 4.214-6.4 9.093-8.113 14.293-7.054-2.338-14.495-3.612-22.149-3.612-7.633 0-15.075 1.289-22.141 3.635-1.712-5.209-4.425-10.097-8.121-14.317-7.843-8.956-19.165-14.093-31.068-14.093h-177.27c-8.228 0-15.854 5.621-17.176 13.742-1.683 10.347 6.26 19.29 16.29 19.29h5.952c7.873 0 14.651 5.557 16.196 13.277l6.342 31.71c7.92 39.601 38.915 71.747 78.845 77.795 53.09 8.042 101.133-29.462 107.991-80.884l1.196-8.967c6.543-5.191 14.512-8.158 22.962-8.158 8.481 0 16.425 2.964 22.962 8.16l.843 6.322c4.672 35.047 27.48 65.41 59.526 78.13 0 0 9.389 2.574 15.688 3.334 53.25 6.427 93.019-21.904 103.059-72.109l6.933-34.663c1.544-7.72 8.814-20.179 24.522-20.179l17.305-11.946zm-291.741 42.383-3.758 28.182c-4.401 33.007-34.894 57.195-68.886 52.787-26.624-3.452-47.43-24.844-52.694-51.17l-5.853-29.272c-1.022-5.11 2.887-9.877 8.098-9.877h114.904c3.262 0 5.294 1.766 6.218 2.818.919 1.052 2.402 3.302 1.971 6.532z" fill="#ff78b9"/><path d="m494.556 298.453c-24.867 115.349-127.428 201.888-250.214 201.888-68.97 0-131.567-27.312-177.598-71.664 47.255 51.788 115.148 83.323 189.256 83.323 117.968 0 220.149-79.867 248.492-194.222 2.01-8.11-2.38-16.32-9.936-19.325z" fill="#ffd05b"/><path d="m511.203 168.209c-2.15-7.009-9.272-11.305-16.603-11.305h-.003v1.659c0 4.917-2.221 9.57-6.044 12.662-2.079 1.682-4.577 2.663-7.168 3.325-12.066 3.082-21.723 12.793-24.239 25.422l-6.847 34.23c-8.757 38.413-35.29 82.194-110.968 73.12 4.861 1.93 9.93 3.451 15.186 4.524 52.553 10.725 101.848-23.767 111.888-73.971l6.933-34.663c1.544-7.72 8.322-13.277 16.195-13.277h5.953c10.809 0 19.194-10.388 15.717-21.726z" fill="#f555b4"/><path d="m452.004 121.682c.706-.406 1.38-.862 2.036-1.384 7.149-5.665 8.351-16.056 2.685-23.202-38.862-49.027-93.009-81.438-153.079-92.689 62.458 18.485 115.26 60.201 148.358 117.275z" fill="#ffd05b"/><path d="m352.129 353.907c-3.253-4.661-8.514-7.127-13.802-7.062 2.949 6.795 1.119 14.963-5.025 19.669-24.833 19.019-57.041 30.32-90.698 31.824-15.26.682-30.391-.699-44.85-3.938 18.189 6.702 38.03 10.245 58.245 10.245 33.69 0 66.371-9.851 92.028-27.742 7.481-5.217 9.32-15.512 4.102-22.996z" fill="#ffd05b"/></g><g/><g/><g/><g/><g/><g/><g/><g/><g/><g/><g/><g/><g/><g/><g/></svg>